<?xml version="1.0" encoding="utf-8"?>
<!-- Generator: Adobe Illustrator 23.0.1, SVG Export Plug-In . SVG Version: 6.00 Build 0)  -->
<svg version="1.1" id="Layer_1" xmlns="http://www.w3.org/2000/svg" xmlns:xlink="http://www.w3.org/1999/xlink" x="0px" y="0px"
	 viewBox="0 0 1927.5 2069.5" style="enable-background:new 0 0 1927.5 2069.5;" xml:space="preserve">
<style type="text/css">
	.st0{clip-path:url(#SVGID_2_);}
	.st1{fill:#EE6C26;}
	.st2{clip-path:url(#SVGID_4_);}
	.st3{fill:#ED6B25;}
	.st4{fill:#FFFFFF;}
	.st5{clip-path:url(#SVGID_4_);fill:#FFFFFF;stroke:#E9A662;stroke-width:14.1732;stroke-miterlimit:10;}
	.st6{fill:none;stroke:#ED6B25;stroke-width:28.3465;stroke-linecap:round;stroke-miterlimit:10;}
	.st7{fill:#E9A662;}
	.st8{clip-path:url(#SVGID_6_);}
	.st9{opacity:9.000000e-02;fill:#353535;enable-background:new    ;}
</style>
<g>
	<g>
		<defs>
			<polygon id="SVGID_1_" points="2214.1,-211.6 -286.6,-211.6 -286.6,1060.6 9,1060.6 5.6,1064.1 959.5,2069.5 1921.8,1064.1 
				1918.4,1060.6 2214.1,1060.6 			"/>
		</defs>
		<clipPath id="SVGID_2_">
			<use xlink:href="#SVGID_1_"  style="overflow:visible;"/>
		</clipPath>
		<g class="st0">
			<path class="st1" d="M895.6,133.9c34.2-35.8,90.4-35.9,124.7-0.3l837.3,867.1c34.4,35.6,34.5,94,0.3,129.8L1020,2005.8
				c-34.2,35.8-90.1,35.6-124.2-0.3L66,1130.8c-34.1-35.9-33.9-94.6,0.3-130.3L895.6,133.9z"/>
		</g>
	</g>
	<g>
		<defs>
			<polygon id="SVGID_3_" points="2214.1,-211.6 -286.6,-211.6 -286.6,1060.6 9,1060.6 5.6,1064.1 959.5,2069.5 1921.8,1064.1 
				1918.4,1060.6 2214.1,1060.6 			"/>
		</defs>
		<clipPath id="SVGID_4_">
			<use xlink:href="#SVGID_3_"  style="overflow:visible;"/>
		</clipPath>
		<g class="st2">
			<path class="st3" d="M1036.5,827.9c-11.7,0-21.3-9.5-21.3-21.3v-196c0-11.7,9.5-21.3,21.3-21.3h640.8c11.7,0,21.3,9.5,21.3,21.3
				v196c0,11.7-9.5,21.3-21.3,21.3H1036.5z"/>
			<path class="st4" d="M1677.3,596.4c7.8,0,14.2,6.4,14.2,14.2v196c0,7.8-6.4,14.2-14.2,14.2h-640.8c-7.8,0-14.2-6.4-14.2-14.2
				v-196c0-7.8,6.4-14.2,14.2-14.2H1677.3 M1677.3,582.2h-640.8c-15.6,0-28.3,12.7-28.3,28.3v196c0,15.6,12.7,28.3,28.3,28.3h640.8
				c15.6,0,28.3-12.7,28.3-28.3v-196C1705.7,594.9,1693,582.2,1677.3,582.2L1677.3,582.2z"/>
		</g>
		<path class="st5" d="M1022.3,1120.4v-196c0-7.8,6.4-14.2,14.2-14.2h640.8c7.8,0,14.2,6.4,14.2,14.2v196c0,7.8-6.4,14.2-14.2,14.2
			h-640.8C1028.7,1134.6,1022.3,1128.2,1022.3,1120.4z"/>
		<path class="st5" d="M1022.3,1434.3v-196c0-7.8,6.4-14.2,14.2-14.2h640.8c7.8,0,14.2,6.4,14.2,14.2v196c0,7.8-6.4,14.2-14.2,14.2
			h-640.8C1028.7,1448.4,1022.3,1442,1022.3,1434.3z"/>
		<g class="st2">
			<path class="st4" d="M1242.6,685.4v-15.3l14.3-10.4h14.4v100.6h-14.4V675L1242.6,685.4z"/>
			<path class="st4" d="M1302.7,687.8c0.1-9.3,3.1-16.4,8.9-21.5c5.5-5,12-7.5,19.6-7.5c7.8,0,14.5,2.5,19.9,7.5
				c5.6,5,8.4,12.2,8.6,21.5v44.4c-0.2,9.2-3.1,16.4-8.6,21.4s-12.1,7.5-19.9,7.6c-7.6-0.1-14.1-2.6-19.6-7.6
				c-5.8-5-8.8-12.1-8.9-21.4V687.8z M1345.3,688.7c-0.3-10.1-5-15.2-14.1-15.4c-9.2,0.2-13.9,5.3-14.1,15.4v42.6
				c0.2,10.2,4.9,15.3,14.1,15.4c9.2-0.1,13.9-5.2,14.1-15.4V688.7z"/>
			<path class="st4" d="M1374.8,745.9h14.4v14.4h-14.4V745.9z"/>
			<path class="st4" d="M1404.4,687.8c0.1-9.3,3.1-16.4,8.9-21.5c5.5-5,12-7.5,19.6-7.5c7.8,0,14.5,2.5,19.9,7.5
				c5.6,5,8.4,12.2,8.6,21.5v44.4c-0.2,9.2-3.1,16.4-8.6,21.4s-12.1,7.5-19.9,7.6c-7.6-0.1-14.1-2.6-19.6-7.6
				c-5.8-5-8.8-12.1-8.9-21.4V687.8z M1447,688.7c-0.3-10.1-5-15.2-14.1-15.4c-9.2,0.2-13.9,5.3-14.1,15.4v42.6
				c0.2,10.2,4.9,15.3,14.1,15.4c9.2-0.1,13.9-5.2,14.1-15.4V688.7z"/>
			<path class="st4" d="M1472.2,687.8c0.1-9.3,3.1-16.4,8.9-21.5c5.5-5,12-7.5,19.6-7.5c7.8,0,14.5,2.5,19.9,7.5
				c5.6,5,8.4,12.2,8.6,21.5v44.4c-0.2,9.2-3.1,16.4-8.6,21.4s-12.1,7.5-19.9,7.6c-7.6-0.1-14.1-2.6-19.6-7.6
				c-5.8-5-8.8-12.1-8.9-21.4V687.8z M1514.8,688.7c-0.3-10.1-5-15.2-14.1-15.4c-9.2,0.2-13.9,5.3-14.1,15.4v42.6
				c0.2,10.2,4.9,15.3,14.1,15.4c9.2-0.1,13.9-5.2,14.1-15.4V688.7z"/>
			<path class="st4" d="M1540,687.8c0.1-9.3,3.1-16.4,8.9-21.5c5.5-5,12-7.5,19.6-7.5c7.8,0,14.5,2.5,19.9,7.5
				c5.6,5,8.4,12.2,8.6,21.5v44.4c-0.2,9.2-3.1,16.4-8.6,21.4s-12.1,7.5-19.9,7.6c-7.6-0.1-14.1-2.6-19.6-7.6
				c-5.8-5-8.8-12.1-8.9-21.4V687.8z M1582.6,688.7c-0.3-10.1-5-15.2-14.1-15.4c-9.2,0.2-13.9,5.3-14.1,15.4v42.6
				c0.2,10.2,4.9,15.3,14.1,15.4c9.2-0.1,13.9-5.2,14.1-15.4V688.7z"/>
		</g>
		<g class="st2">
			<path class="st4" d="M1138.3,762.9c-0.4,0-0.8-0.2-1.1-0.5l-49.5-61.7c-0.4-0.5-0.4-1.3,0-1.8l20.8-25.9c0.3-0.3,0.7-0.5,1.1-0.5
				h57.5c0.4,0,0.8,0.2,1.1,0.5l20.8,25.9c0.4,0.5,0.4,1.3,0,1.8l-49.5,61.7C1139.1,762.7,1138.7,762.9,1138.3,762.9z"/>
			<path class="st4" d="M1167,673.9l20.8,25.9l-49.5,61.7l-49.5-61.7l20.8-25.9H1167 M1167,671h-57.5c-0.9,0-1.7,0.4-2.2,1.1
				l-20.8,25.9c-0.8,1-0.8,2.5,0,3.5l49.5,61.7c0.5,0.7,1.4,1.1,2.2,1.1s1.7-0.4,2.2-1.1l49.5-61.7c0.8-1,0.8-2.5,0-3.5l-20.8-25.9
				C1168.7,671.4,1167.9,671,1167,671L1167,671z"/>
		</g>
		<g class="st2">
			<g>
				<line class="st6" x1="1647" y1="468.8" x2="1647" y2="527.5"/>
			</g>
			<g>
				<line class="st6" x1="1761.5" y1="510.5" x2="1727.6" y2="544.4"/>
			</g>
			<g>
				<line class="st6" x1="1536.2" y1="510.5" x2="1570.1" y2="544.4"/>
			</g>
		</g>
		<path class="st5" d="M255,1120.4v-196c0-7.8,6.4-14.2,14.2-14.2H910c7.8,0,14.2,6.4,14.2,14.2v196c0,7.8-6.4,14.2-14.2,14.2H269.1
			C261.3,1134.6,255,1128.2,255,1120.4z"/>
		<path class="st5" d="M255,1434.3v-196c0-7.8,6.4-14.2,14.2-14.2H910c7.8,0,14.2,6.4,14.2,14.2v196c0,7.8-6.4,14.2-14.2,14.2H269.1
			C261.3,1448.4,255,1442,255,1434.3z"/>
		<path class="st5" d="M255,808V612c0-7.8,6.4-14.2,14.2-14.2H910c7.8,0,14.2,6.4,14.2,14.2v196c0,7.8-6.4,14.2-14.2,14.2H269.1
			C261.3,822.2,255,815.8,255,808z"/>
		<g class="st2">
			<path class="st7" d="M1138.3,1381.1c-0.4,0-0.8-0.2-1.1-0.5l-49.5-61.7c-0.4-0.5-0.4-1.3,0-1.8l20.8-25.9
				c0.3-0.3,0.7-0.5,1.1-0.5h57.5c0.4,0,0.8,0.2,1.1,0.5l20.8,25.9c0.4,0.5,0.4,1.3,0,1.8l-49.5,61.7
				C1139.1,1380.9,1138.7,1381.1,1138.3,1381.1z"/>
			<path class="st4" d="M1167,1292.1l20.8,25.9l-49.5,61.7l-49.5-61.7l20.8-25.9H1167 M1167,1289.3h-57.5c-0.9,0-1.7,0.4-2.2,1.1
				l-20.8,25.9c-0.8,1-0.8,2.5,0,3.5l49.5,61.7c0.5,0.7,1.4,1.1,2.2,1.1s1.7-0.4,2.2-1.1l49.5-61.7c0.8-1,0.8-2.5,0-3.5l-20.8-25.9
				C1168.7,1289.6,1167.9,1289.3,1167,1289.3L1167,1289.3z"/>
		</g>
		<g class="st2">
			<path class="st7" d="M368.9,1388c-0.4,0-0.8-0.2-1.1-0.5l-49.5-61.7c-0.4-0.5-0.4-1.3,0-1.8l20.8-25.9c0.3-0.3,0.7-0.5,1.1-0.5
				h57.5c0.4,0,0.8,0.2,1.1,0.5l20.8,25.9c0.4,0.5,0.4,1.3,0,1.8l-49.5,61.7C369.8,1387.8,369.4,1388,368.9,1388z"/>
			<path class="st4" d="M397.7,1299l20.8,25.9l-49.5,61.7l-49.5-61.7l20.8-25.9H397.7 M397.7,1296.2h-57.5c-0.9,0-1.7,0.4-2.2,1.1
				l-20.8,25.9c-0.8,1-0.8,2.5,0,3.5l49.5,61.7c0.5,0.7,1.4,1.1,2.2,1.1s1.7-0.4,2.2-1.1l49.5-61.7c0.8-1,0.8-2.5,0-3.5l-20.8-25.9
				C399.3,1296.6,398.5,1296.2,397.7,1296.2L397.7,1296.2z"/>
		</g>
		<path class="st5" d="M1022.3,1731.3v-196c0-7.8,6.4-14.2,14.2-14.2h640.8c7.8,0,14.2,6.4,14.2,14.2v196c0,7.8-6.4,14.2-14.2,14.2
			h-640.8C1028.7,1745.5,1022.3,1739.1,1022.3,1731.3z"/>
		<path class="st5" d="M255,1731.3v-196c0-7.8,6.4-14.2,14.2-14.2H910c7.8,0,14.2,6.4,14.2,14.2v196c0,7.8-6.4,14.2-14.2,14.2H269.1
			C261.3,1745.5,255,1739.1,255,1731.3z"/>
		<g class="st2">
			<path class="st7" d="M1138.3,1678.1c-0.4,0-0.8-0.2-1.1-0.5l-49.5-61.7c-0.4-0.5-0.4-1.3,0-1.8l20.8-25.9
				c0.3-0.3,0.7-0.5,1.1-0.5h57.5c0.4,0,0.8,0.2,1.1,0.5l20.8,25.9c0.4,0.5,0.4,1.3,0,1.8l-49.5,61.7
				C1139.1,1677.9,1138.7,1678.1,1138.3,1678.1z"/>
			<path class="st4" d="M1167,1589.1l20.8,25.9l-49.5,61.7l-49.5-61.7l20.8-25.9H1167 M1167,1586.3h-57.5c-0.9,0-1.7,0.4-2.2,1.1
				l-20.8,25.9c-0.8,1-0.8,2.5,0,3.5l49.5,61.7c0.5,0.7,1.4,1.1,2.2,1.1s1.7-0.4,2.2-1.1l49.5-61.7c0.8-1,0.8-2.5,0-3.5l-20.8-25.9
				C1168.7,1586.7,1167.9,1586.3,1167,1586.3L1167,1586.3z"/>
		</g>
		<g class="st2">
			<path class="st7" d="M1138.3,1077.2c-0.4,0-0.8-0.2-1.1-0.5l-49.5-61.7c-0.4-0.5-0.4-1.3,0-1.8l20.8-25.9
				c0.3-0.3,0.7-0.5,1.1-0.5h57.5c0.4,0,0.8,0.2,1.1,0.5l20.8,25.9c0.4,0.5,0.4,1.3,0,1.8l-49.5,61.7
				C1139.1,1077,1138.7,1077.2,1138.3,1077.2z"/>
			<path class="st4" d="M1167,988.3l20.8,25.9l-49.5,61.7l-49.5-61.7l20.8-25.9H1167 M1167,985.4h-57.5c-0.9,0-1.7,0.4-2.2,1.1
				l-20.8,25.9c-0.8,1-0.8,2.5,0,3.5l49.5,61.7c0.5,0.7,1.4,1.1,2.2,1.1s1.7-0.4,2.2-1.1l49.5-61.7c0.8-1,0.8-2.5,0-3.5l-20.8-25.9
				C1168.7,985.8,1167.9,985.4,1167,985.4L1167,985.4z"/>
		</g>
		<g class="st2">
			<path class="st7" d="M368.9,1075.2c-0.4,0-0.8-0.2-1.1-0.5l-49.5-61.7c-0.4-0.5-0.4-1.3,0-1.8l20.8-25.9c0.3-0.3,0.7-0.5,1.1-0.5
				h57.5c0.4,0,0.8,0.2,1.1,0.5l20.8,25.9c0.4,0.5,0.4,1.3,0,1.8l-49.5,61.7C369.8,1075,369.4,1075.2,368.9,1075.2z"/>
			<path class="st4" d="M397.7,986.3l20.8,25.9l-49.5,61.7l-49.5-61.7l20.8-25.9H397.7 M397.7,983.4h-57.5c-0.9,0-1.7,0.4-2.2,1.1
				l-20.8,25.9c-0.8,1-0.8,2.5,0,3.5l49.5,61.7c0.5,0.7,1.4,1.1,2.2,1.1s1.7-0.4,2.2-1.1l49.5-61.7c0.8-1,0.8-2.5,0-3.5l-20.8-25.9
				C399.3,983.8,398.5,983.4,397.7,983.4L397.7,983.4z"/>
		</g>
		<g class="st2">
			<path class="st7" d="M368.9,760.8c-0.4,0-0.8-0.2-1.1-0.5l-49.5-61.7c-0.4-0.5-0.4-1.3,0-1.8l20.8-25.9c0.3-0.3,0.7-0.5,1.1-0.5
				h57.5c0.4,0,0.8,0.2,1.1,0.5l20.8,25.9c0.4,0.5,0.4,1.3,0,1.8L370,760.3C369.8,760.6,369.4,760.8,368.9,760.8z"/>
			<path class="st4" d="M397.7,671.8l20.8,25.9L369,759.4l-49.5-61.7l20.8-25.9H397.7 M397.7,669h-57.5c-0.9,0-1.7,0.4-2.2,1.1
				L317.2,696c-0.8,1-0.8,2.5,0,3.5l49.5,61.7c0.5,0.7,1.4,1.1,2.2,1.1s1.7-0.4,2.2-1.1l49.5-61.7c0.8-1,0.8-2.5,0-3.5l-20.8-25.9
				C399.3,669.4,398.5,669,397.7,669L397.7,669z"/>
		</g>
	</g>
	<g>
		<defs>
			<polygon id="SVGID_5_" points="2214.1,-211.6 -286.6,-211.6 -286.6,1060.6 9,1060.6 5.6,1064.1 959.5,2069.5 1921.8,1064.1 
				1918.4,1060.6 2214.1,1060.6 			"/>
		</defs>
		<clipPath id="SVGID_6_">
			<use xlink:href="#SVGID_5_"  style="overflow:visible;"/>
		</clipPath>
		<g class="st8">
			<path class="st9" d="M977,2026c19.8-4.4,38.6-14.6,53.9-30.5l808.3-844.4c41.5-43.3,50.4-102.8,10.5-147.1c0,0,3.3,2.1-0.4,0.4
				C1851.7,1093.4,977,2026,977,2026z"/>
			<path class="st9" d="M944.5,2030.8c-19.8-4.4-38.6-14.6-53.9-30.5L82.3,1155.9c-41.5-43.3-50.4-102.8-10.5-147.1
				c0,0-3.3,2.1,0.4,0.4C69.7,1098.2,944.5,2030.8,944.5,2030.8z"/>
		</g>
	</g>
</g>
</svg>
