<?xml version="1.0" encoding="utf-8"?>
<!-- Generator: Adobe Illustrator 21.0.0, SVG Export Plug-In . SVG Version: 6.00 Build 0)  -->
<svg version="1.1" id="Layer_1" xmlns="http://www.w3.org/2000/svg" xmlns:xlink="http://www.w3.org/1999/xlink" x="0px" y="0px"
	 viewBox="0 0 1927.5 2069.5" style="enable-background:new 0 0 1927.5 2069.5;" xml:space="preserve">
<style type="text/css">
	.st0{fill:#ED6C27;}
	.st1{fill:#E9A662;}
	.st2{fill:#409DD7;}
	.st3{fill:#90CCD6;}
	.st4{clip-path:url(#SVGID_2_);}
	.st5{fill:#ED6B26;}
	.st6{fill:#FFFFFF;}
	.st7{fill:#FFFFFF;stroke:#E9A662;stroke-width:14.1732;stroke-miterlimit:10;}
	.st8{fill:none;stroke:#FFFFFF;stroke-width:14.1732;stroke-linecap:round;stroke-miterlimit:10;}
	.st9{fill:none;stroke:#ED6B26;stroke-width:28.3465;stroke-linecap:round;stroke-miterlimit:10;}
	.st10{fill:none;stroke:#E9A662;stroke-width:14.1732;stroke-linecap:round;stroke-miterlimit:10;}
	.st11{opacity:9.000000e-02;fill:#353535;}
	.st12{clip-path:url(#SVGID_4_);}
	.st13{clip-path:url(#SVGID_6_);}
	.st14{fill:url(#);}
	.st15{fill:#EEEEEE;}
	.st16{fill:#272727;}
	.st17{clip-path:url(#SVGID_8_);}
	.st18{clip-path:url(#SVGID_10_);}
	.st19{clip-path:url(#SVGID_12_);}
	.st20{fill:none;}
	.st21{clip-path:url(#SVGID_14_);}
	.st22{clip-path:url(#SVGID_16_);}
	.st23{clip-path:url(#SVGID_18_);}
	.st24{opacity:9.000000e-02;}
	.st25{fill:#353535;}
	.st26{clip-path:url(#SVGID_20_);}
	.st27{fill:#888888;}
	.st28{clip-path:url(#SVGID_22_);}
	.st29{clip-path:url(#SVGID_24_);}
	.st30{clip-path:url(#SVGID_26_);}
	.st31{clip-path:url(#SVGID_28_);}
	.st32{clip-path:url(#SVGID_30_);}
	.st33{clip-path:url(#SVGID_32_);}
	.st34{clip-path:url(#SVGID_34_);}
	.st35{clip-path:url(#SVGID_36_);}
	.st36{clip-path:url(#SVGID_38_);}
	.st37{clip-path:url(#SVGID_40_);}
	.st38{fill:none;stroke:#409DD7;stroke-width:42.5197;stroke-linecap:round;stroke-miterlimit:10;}
	.st39{fill:none;stroke:#ED6B26;stroke-width:31.1811;stroke-linecap:round;stroke-miterlimit:10;}
</style>
<g>
	<defs>
		<path id="SVGID_39_" d="M2264.4-40.3H-382.9V1081l431.8,0.4c2.1,25.7,21.3,50.4,39.9,70L889.3,1995
			c42.2,44.4,111.3,44.6,153.7,0.3l808.3-844.4c18.7-19.5,37.3-45,39.4-70.6l373.7,0.6V-40.3z"/>
	</defs>
	<clipPath id="SVGID_2_">
		<use xlink:href="#SVGID_39_"  style="overflow:visible;"/>
	</clipPath>
	<g class="st4">
		<g>
			<g>
				<path class="st0" d="M903.3,138.4c34.2-35.8,90.4-35.9,124.7-0.3l837.3,867.1c34.4,35.6,34.5,94,0.3,129.8l-837.9,875.3
					c-34.2,35.8-90.1,35.6-124.2-0.3L73.6,1135.3c-34.1-35.9-33.9-94.6,0.3-130.3L903.3,138.4z"/>
			</g>
		</g>
		<g>
			<g>
				<path class="st6" d="M1373.8,1971.5c-0.8,0-1.6,0-2.4-0.1L459,1898.8c-7.9-0.6-15.1-4.3-20.3-10.4s-7.7-13.8-7-21.7L569.9,131.1
					c1.2-15.4,14.3-27.4,29.7-27.4c0.8,0,1.6,0,2.4,0.1l912.4,72.7c7.9,0.6,15.1,4.3,20.3,10.4c5.2,6.1,7.7,13.8,7,21.7
					l-138.2,1735.6C1402.2,1959.5,1389.2,1971.5,1373.8,1971.5z"/>
				<path class="st1" d="M599.6,119.3c0.4,0,0.7,0,1.1,0l912.4,72.7c7.8,0.6,13.6,7.5,13,15.3l-138.2,1735.6
					c-0.6,7.4-6.8,13-14.1,13c-0.4,0-0.7,0-1.1,0l-912.4-72.7c-7.8-0.6-13.6-7.5-13-15.3L585.5,132.3
					C586,124.9,592.3,119.3,599.6,119.3 M599.6,88.1L599.6,88.1L599.6,88.1c-11.4,0-22.3,4.3-30.7,12c-8.5,7.8-13.6,18.4-14.5,29.8
					L416.2,1865.5c-2,24.9,16.7,46.8,41.6,48.8l912.4,72.7c1.2,0.1,2.4,0.1,3.6,0.1c11.4,0,22.3-4.2,30.7-12
					c8.5-7.8,13.6-18.4,14.5-29.8l138.2-1735.6c1-12.1-2.8-23.8-10.7-33c-7.9-9.2-18.8-14.8-30.9-15.8L603.2,88.2
					C602,88.1,600.8,88.1,599.6,88.1L599.6,88.1z"/>
			</g>
			<g>
				<path class="st1" d="M1300.8,246.9l-480.6-38.6c-9.6-0.8-16.9-8.3-16.3-16.7l-13.7-76c0.7-8.4,27.7,0.7,37.3,1.5l480.6,38.6
					c9.6,0.8,31-1.9,30.3,6.5l-18.9,70.8C1318.9,241.4,1310.5,247.6,1300.8,246.9z"/>
			</g>
			<g>
				<path class="st1" d="M1405.8,2142.1l-1029.6-89.3c-7.8-0.7-13.6-7.6-12.9-15.3l19.8-228.2c0.7-7.8,7.6-13.6,15.3-12.9
					l1029.6,89.3c7.8,0.7,13.6,7.6,12.9,15.3l-19.8,228.2C1420.5,2137,1413.6,2142.8,1405.8,2142.1z"/>
			</g>
		</g>
		<g>
			<polygon class="st2" points="1187.7,811.1 824.1,782.1 679.5,935.5 961.7,1350.9 1306.2,985.4 			"/>
			<g>
				<line class="st38" x1="1033.6" y1="561.5" x2="1024.6" y2="674.5"/>
			</g>
			<g>
				<line class="st38" x1="1300.3" y1="689.1" x2="1229.8" y2="749.2"/>
			</g>
			<g>
				<line class="st38" x1="739.8" y1="627" x2="799.9" y2="697.4"/>
			</g>
		</g>
		<g>
			<path class="st11" d="M987,2029.7c19.7-4.4,38.5-14.5,53.7-30.5l805.3-843.5c41.3-43.2,69.2-92.5,17-152.7c0,0,2.2,13.2-1.5,20
				C1857.7,1029.7,987,2029.7,987,2029.7z"/>
			<path class="st11" d="M949.8,2026.5c-19.8-4.4-38.6-14.5-53.9-30.5L73.1,1134.8c-28-28-34-103.3,3.6-128c0,0-3.3,2.1,0.4,0.4
				C74.6,1096.1,949.8,2026.5,949.8,2026.5z"/>
		</g>
		<g>
			<g>
				<line class="st39" x1="362.3" y1="301.5" x2="441.1" y2="315"/>
			</g>
			<g>
				<line class="st39" x1="444.7" y1="157.2" x2="482.5" y2="210.6"/>
			</g>
			<g>
				<line class="st39" x1="392.8" y1="460" x2="446.2" y2="422.3"/>
			</g>
		</g>
	</g>
</g>
</svg>
